<svg xmlns="http://www.w3.org/2000/svg" viewBox="0 0 582.79 494.05"><defs><style>.cls-1{opacity:0.09;}.cls-2{font-size:38.2px;font-family:ProximaNova-Bold, Proxima Nova;font-weight:700;}.cls-3{fill:none;}</style></defs><title>Ресурс 6</title><g id="Слой_2" data-name="Слой 2"><g id="Слой_1-2" data-name="Слой 1"><g class="cls-1"><path d="M418,460.36c1.92-.44,4-.49,5.72-1.38,5-2.65,7.42-7.35,7.73-12.7.54-9.58.53-19.2.66-28.81.09-6.4,2.48-12.24,4-18.32,1.16-4.78,4.32-8.33,5.78-12.81.54-1.65,2.6-2.83,1.29-5a19.16,19.16,0,0,1-9.65,4.09,6.22,6.22,0,0,0-2.22.54c-6.37,3.64-13.47,4.07-20.51,4.84-1.79.2-3.54.78-5.32,1a82.86,82.86,0,0,1-10.78,1.4,145.41,145.41,0,0,1-19.28-.51,200.86,200.86,0,0,1-22.79-4.14,83.75,83.75,0,0,1-17.42-5.66c-3.63-1.76-7.62-2.71-10.95-4.84a27.06,27.06,0,0,0-5.22-3c-.73-.27-1.1-2.57-.95-3.87.13-1.09,1.36-2,1.87-3.11.25-.54,0-1.32-.08-2a7.43,7.43,0,0,0-1.58.77c-.69.57-1.26,1.28-1.9,1.91-3,3-6.34,5.59-8.52,9.4-1.57,2.73-4,5-5.73,7.6a64.21,64.21,0,0,0-3.69,7.14c-1,2-2,4-2.79,6.11-.89,2.28-1.49,4.67-2.37,6.95-1.21,3.14-2.57,6.23-3.87,9.33-1,2.32-2,4.61-3,7-2.14,5.54-4.67,11-6.14,16.71a35.32,35.32,0,0,0-.94,13.58,9.3,9.3,0,0,0,6.94,7.52c2.16.6,4,2.24,6,3.39a73.7,73.7,0,0,0-6.29,4.27,6,6,0,0,0-2.27,3.53,75.74,75.74,0,0,0,.05,11.2c.1,1.4,1.11,2.77,1.82,4.09,1.2,2.24.11,2.66-1.89,2.66a65.57,65.57,0,0,0-9.2.25c-8.87,1.27-17.72,2.67-26.53,4.29-3.24.6-6.25.6-8.66-1.66-4-3.76-9.18-3.94-14.05-5.06-5-1.15-10.09-2.22-15.5-3.4.57-.42.88-.83,1.24-.89,3.17-.51,6.17-.94,9.15-2.72,2.82-1.69,6.63-1.63,9.87-2.73a65.12,65.12,0,0,0,8.88-3.92,56.51,56.51,0,0,0,8.35-5,61.09,61.09,0,0,0,8.21-7.5,30.39,30.39,0,0,0,5.38-7.72,28.75,28.75,0,0,0,2.34-9.39c.55-7.07.2-14.22,1-21.24.54-4.53,2.43-8.92,3.89-13.32a29.68,29.68,0,0,1,3.07-7.22c4.62-6.9,3.81-14.4,3.09-22-.37-3.91.05-7.93-.62-11.77-.82-4.65-2.42-9.17-3.68-13.74a5.3,5.3,0,0,1-.32-.8c-.59-6.26-4.23-11.2-7.48-16.15-1.8-2.74-3.4-5.81-6.78-7.63-2.82-1.52-4.81-4.56-7.21-6.87s-4.9-4.61-7.36-6.9c-.13-.12-.45-.13-.5-.26-1.19-2.88-3.64-4.68-5.75-6.78a34.88,34.88,0,0,1-2.63-3.49q-4.77-6.16-9.57-12.29c-1-1.25-2.08-2.42-2.92-3.75-1.08-1.71-.47-2.66,1.55-2.83,1.87-.16,3.73-.45,5.59-.68l.17-1.07a77.59,77.59,0,0,0-8.81-2.66c-5.36-1-11.05-.82-16.12-2.55-4.48-1.53-9.52-1.93-13.39-5.11a14.78,14.78,0,0,1-1.45-1.77,17.28,17.28,0,0,1,3.45-.78c2.4,0,4.79.26,7.19.28a5.9,5.9,0,0,0,1.94-.73,6.2,6.2,0,0,0-1.19-1.67c-2.53-1.76-5.17-3.36-7.67-5.16a2.19,2.19,0,0,1-.62-2,2,2,0,0,1,1.81-.78,60.94,60.94,0,0,1,6.21,1.89c2.55.9,5.05,1.91,7.57,2.87l.7-.87-3.9-5c-.12-.15-.23-.31-.36-.45-1.41-1.53-3.55-3.31-2-5.33s3.58-.11,5.37.65c1.32.56,2.72.94,4.08,1.4l.83-1.1c-1.27-1.44-2.62-2.82-3.78-4.34a32.62,32.62,0,0,1-2.12-3.73c2.67-.46,4.16-.75,6.14.89,2.22,1.84,5.44,2.46,8.23,3.61l.59-1c-1.1-1.38-1.95-3.17-3.36-4-2.1-1.29-1.41-2.83-1.17-4.47,1.39.23,3,.06,4.13.77,2.14,1.4,2.76,1.33,3.89-1.12.3-.66,1.32-1.49,1.92-1.42,5.71.67,11.57,1,17.06,2.49a45,45,0,0,0,15,1.34,17.52,17.52,0,0,0,3-.85,29.13,29.13,0,0,1,5.68-1.27c9.2-.35,18.41-.51,27.62-.78a4.31,4.31,0,0,0,2.78-1.18,16.33,16.33,0,0,0-2.26-.45c-4.22-.25-8.45-.35-12.66-.72a41.15,41.15,0,0,1-5.85-1.32,26.42,26.42,0,0,0-4.7-1.12c-2.65-.13-3.41-1.39-2.67-3.71,1.59-5,3-10.05,5-14.91a109.74,109.74,0,0,1,6.76-14.24c2.43-4.2,5.6-8,8.42-12,2-2.82,4-5.67,6-8.5a3.88,3.88,0,0,1,.55-.65c2.62-2.37,5.32-4.67,7.86-7.13,2.38-2.29,4.39-5,7-7.06,3.54-2.79,7.42-5.16,11.22-7.61s7.83-5,11.84-7.28c1.7-1,3.66-1.5,5.44-2.36,3.89-1.88,7.67-4,11.61-5.73,5.45-2.41,10.95-4.75,16.55-6.75a36.41,36.41,0,0,1,8.45-1.53c7.4-.77,14.83-1.91,22.24-1.91,6.75,0,13.5,1.28,20.25,2a15.48,15.48,0,0,1,2.83.5c4.21,1.28,8.41,2.63,12.61,4,.09,0,.16.12.24.15,4.55,1.9,9.14,3.73,13.65,5.74a24.36,24.36,0,0,1,4.54,2.83c2.52,1.88,4.41,1.32,5.71-1.57a30.69,30.69,0,0,1,2.84-4.47c3.49-5.13,4.86-11,5.57-17,.34-2.84-.37-5.83-.73-8.73a33.06,33.06,0,0,0-5.59-14.31c-2.59-3.83-5.78-7.85-9.69-10s-9-3-13.61-2.84c-9.57.25-19.13,1.29-28.65,2.42-4.32.51-8.47,2.3-12.78,3a120.19,120.19,0,0,1-12.85,1c-3.89.21-5.92-2.88-8-5.32-.65-.77.6-3.15,1-5.07-1.9-1.31-2.14-3.39-.34-5.94,3.36-4.74,8.34-7.21,13.24-9.89,5.54-3,11.62-4.1,17.59-5.75a64.4,64.4,0,0,1,14.62-2,9.58,9.58,0,0,0,2.28-.86c-2.63-1.47-4.82-2.75-7.07-3.92-2.85-1.49-5.71-2.94-8.63-4.3-1.89-.88-4-1.35-5.8-2.38-5.34-3.06-10.71-6.1-15.8-9.54-3.14-2.13-5.67-5.14-8.7-7.45s-4.39-5.83-6.38-8.88a2.44,2.44,0,0,1-.22-2c1.93-3.81,4.25-7.33,8.14-9.46.25-.14.49-.4.75-.42,6.18-.33,12.3-1.16,18.4,1.42,4.16,1.76,8.76,2.55,13.22,3.48a107.67,107.67,0,0,0,13.2,2,41.8,41.8,0,0,0,8.75-.65c2.16-.29,4.26-1,6.42-1.39A16.94,16.94,0,0,0,447,16a94.69,94.69,0,0,1,12.39-9.55c2.43-1.6,5.49-2.21,8.18-3.43C477.56-1.5,488,.19,498.36.9c2.66.18,5.29,1.77,7.79,3,4.37,2.18,9.12,4,12.76,7.12,2.4,2,6,3.46,6.86,7.13.13.51.65.92,1,1.39,2,2.76,4,5.48,5.86,8.28,4.19,6.15,5.14,13.41,6.6,20.42.86,4.08.33,8.44.91,12.6,1.3,9.37,3,18.69,4.3,28.06a41.37,41.37,0,0,1,.07,10.91q-2,14.94-4.74,29.79c-.57,3.12-2.11,6.05-3.23,9.07-.2.53-.5,1-.7,1.56-1,2.66-2.08,5.29-2.9,8a67.14,67.14,0,0,0-2.57,9.92c-1,7.18-2.18,14.41-2.34,21.64-.12,5.4,1,10.86,2,16.23a80.31,80.31,0,0,0,3.41,13.54,123.77,123.77,0,0,0,6.29,13.17c1.9,3.74,4,7.4,6,11.09a4.63,4.63,0,0,0,.51,1c1.77,1.87,3.56,3.71,5.7,5.93.24-.95.85-2,.56-2.51-1.12-2.19-2.66-4.18-3.79-6.37-1.22-2.37-2.22-4.85-3.22-7.33-1.1-2.71-2.08-5.46-3.12-8.18a18.84,18.84,0,0,1-1.13-2.94c-1.14-5.82-2.26-11.64-3.23-17.49-.17-1,.41-2.11.64-3.18a11.09,11.09,0,0,1,2.84.71c2.73,1.52,5.68,2.85,8,4.89C553.5,202,557.25,206,561,210a63.19,63.19,0,0,1,5.59,6.61c2.74,3.8,6,7.45,7.72,11.71,2.66,6.67,5.25,13.37,6.68,20.59a82.23,82.23,0,0,1,.56,30.84A77.61,77.61,0,0,1,576.25,298c-1.93,4.25-4.23,8.28-6.5,12.25s-5.87,7.45-8.92,11.1c-2,2.39-4.07,4.73-6.13,7.08a6.23,6.23,0,0,1-1.15.82,81.9,81.9,0,0,1-7.95,5.5c-4.25,2.29-7.81,5.8-12.92,6.64-2.46.4-4.7,2.1-7.08,3.1-5.41,2.28-11,4.24-16.23,6.84-3.5,1.73-6.55,4.38-9.83,6.56-1.09.73-2.34,1.23-3.43,2a97.1,97.1,0,0,0-8.5,6,89,89,0,0,0-6.64,6.89c-.32.34-.62.71-1,1-2.53,2.45-5.26,4.73-7.55,7.38s-4.06,5.59-6.07,8.4c-1.43,2-3,3.95-4.28,6.05a61.75,61.75,0,0,0-3.27,6.36c-2.05,4.45-4,8.93-6,13.4a21.48,21.48,0,0,0-.81,2.45c-1.66,5.46-3.75,10.83-4.84,16.4-1,4.88-1.69,10,1.28,14.79a58.18,58.18,0,0,1,3.32,7.42,2.2,2.2,0,0,0,.39.76c2.61,2.37,5.43,4.54,7.83,7.11,2.73,2.92,6.61,3.78,9.59,5.91,3.17,2.25,6.85,2.71,9.83,4.52a29.32,29.32,0,0,0,11,4.1,17.18,17.18,0,0,1,9.62,4.68c-2.72.19-5.11.38-7.51.52-3.71.21-7.41,0-10.79,2.33-1.55,1.06-3.79,1.23-5.76,1.55-3.08.5-5,2.8-7.31,4.44-.6.42-1.46,1-2,.85-3.5-.83-6.94-1.92-10.44-2.78a38.71,38.71,0,0,0-6.44-1.09c-7.37-.51-14.75-.82-22.12-1.38-1.15-.09-2.23-1.07-3.35-1.64.52-.92,1.07-1.81,1.53-2.76a6.28,6.28,0,0,0,.88-2.34c.12-3.93.56-7.94,0-11.77-.29-1.83-2.49-3.51-4.11-4.93a32.59,32.59,0,0,0-4.89-3Z"/><text class="cls-2" transform="translate(0 53.66)">DARKROOM DUCK<tspan x="211.86" y="35.55" xml:space="preserve"> TIMER</tspan></text><line class="cls-3" x1="324.56" y1="8.43" x2="328.8" y2="10.55"/><line class="cls-3" x1="326.68" y1="100.76" x2="330.92" y2="102.88"/></g></g></g></svg>