<?xml version="1.0" encoding="utf-8"?>
<!-- Generator: Adobe Illustrator 21.0.2, SVG Export Plug-In . SVG Version: 6.00 Build 0)  -->
<svg version="1.1" id="Слой_1" xmlns="http://www.w3.org/2000/svg" xmlns:xlink="http://www.w3.org/1999/xlink" x="0px" y="0px"
	 viewBox="0 0 582.8 494" style="enable-background:new 0 0 582.8 494;" xml:space="preserve">
<style type="text/css">
	.st0{opacity:9.000000e-02;}
	.st1{fill:#FF0000;}
	.st2{enable-background:new    ;}
	.st3{fill:none;}
</style>
<title>Ресурс 6</title>
<g id="Слой_2">
	<g id="Слой_1-2">
		<g class="st0">
			<path class="st1" d="M418,460.3c1.9-0.4,4-0.5,5.7-1.4c5-2.6,7.4-7.4,7.7-12.7c0.5-9.6,0.5-19.2,0.7-28.8
				c0.1-6.4,2.5-12.2,4-18.3c1.2-4.8,4.3-8.3,5.8-12.8c0.5-1.6,2.6-2.8,1.3-5c-2.8,2.2-6.1,3.7-9.6,4.1c-0.8,0-1.5,0.2-2.2,0.5
				c-6.4,3.6-13.5,4.1-20.5,4.8c-1.8,0.2-3.5,0.8-5.3,1c-3.6,0.7-7.2,1.2-10.8,1.4c-6.4,0.3-12.9,0.1-19.3-0.5
				c-7.7-0.9-15.3-2.3-22.8-4.1c-6-1.2-11.8-3.1-17.4-5.7c-3.6-1.8-7.6-2.7-11-4.8c-1.6-1.2-3.4-2.2-5.2-3c-0.7-0.3-1.1-2.6-1-3.9
				c0.1-1.1,1.4-2,1.9-3.1c0.3-0.5,0-1.3-0.1-2c-0.6,0.2-1.1,0.5-1.6,0.8c-0.7,0.6-1.3,1.3-1.9,1.9c-3,3-6.3,5.6-8.5,9.4
				c-1.6,2.7-4,5-5.7,7.6c-1.4,2.3-2.6,4.7-3.7,7.1c-1,2-2,4-2.8,6.1c-0.9,2.3-1.5,4.7-2.4,7c-1.2,3.1-2.6,6.2-3.9,9.3
				c-1,2.3-2,4.6-3,7c-2.1,5.5-4.7,11-6.1,16.7c-1.2,4.4-1.5,9-0.9,13.6c0.6,3.7,3.3,6.6,6.9,7.5c2.2,0.6,4,2.2,6,3.4
				c-2.2,1.3-4.3,2.7-6.3,4.3c-1.2,0.9-2,2.1-2.3,3.5c-0.3,3.7-0.2,7.5,0,11.2c0.1,1.4,1.1,2.8,1.8,4.1c1.2,2.2,0.1,2.7-1.9,2.7
				c-3.1-0.1-6.1,0-9.2,0.3c-8.9,1.3-17.7,2.7-26.5,4.3c-3.2,0.6-6.3,0.6-8.7-1.7c-4-3.8-9.2-3.9-14.1-5.1c-5-1.1-10.1-2.2-15.5-3.4
				c0.6-0.4,0.9-0.8,1.2-0.9c3.2-0.5,6.2-0.9,9.1-2.7c2.8-1.7,6.6-1.6,9.9-2.7c3.1-1.1,6-2.4,8.9-3.9c2.9-1.4,5.7-3.1,8.4-5
				c3-2.2,5.7-4.8,8.2-7.5c2.2-2.3,4-4.9,5.4-7.7c1.3-3,2.1-6.2,2.3-9.4c0.5-7.1,0.2-14.2,1-21.2c0.5-4.5,2.4-8.9,3.9-13.3
				c0.7-2.5,1.7-5,3.1-7.2c4.6-6.9,3.8-14.4,3.1-22c-0.4-3.9,0-7.9-0.6-11.8c-0.8-4.6-2.4-9.2-3.7-13.7c-0.1-0.3-0.2-0.5-0.3-0.8
				c-0.6-6.3-4.2-11.2-7.5-16.1c-1.8-2.7-3.4-5.8-6.8-7.6c-2.8-1.5-4.8-4.6-7.2-6.9s-4.9-4.6-7.4-6.9c-0.1-0.1-0.4-0.1-0.5-0.3
				c-1.2-2.9-3.6-4.7-5.8-6.8c-0.9-1.1-1.8-2.3-2.6-3.5c-3.2-4.1-6.4-8.2-9.6-12.3c-1-1.3-2.1-2.4-2.9-3.8c-1.1-1.7-0.5-2.7,1.6-2.8
				c1.9-0.2,3.7-0.5,5.6-0.7l0.2-1.1c-2.9-1.1-5.8-1.9-8.8-2.7c-5.4-1-11.1-0.8-16.1-2.5c-4.5-1.5-9.5-1.9-13.4-5.1
				c-0.5-0.6-1-1.1-1.4-1.8c1.1-0.4,2.3-0.6,3.4-0.8c2.4,0,4.8,0.3,7.2,0.3c0.7-0.1,1.3-0.4,1.9-0.7c-0.3-0.6-0.7-1.2-1.2-1.7
				c-2.5-1.8-5.2-3.4-7.7-5.2c-0.5-0.5-0.8-1.3-0.6-2c0.4-0.6,1.1-0.9,1.8-0.8c2.1,0.5,4.2,1.2,6.2,1.9c2.6,0.9,5.1,1.9,7.6,2.9
				l0.7-0.9l-3.9-5c-0.1-0.1-0.2-0.3-0.4-0.5c-1.4-1.5-3.6-3.3-2-5.3c1.6-2,3.6-0.1,5.4,0.6c1.3,0.6,2.7,0.9,4.1,1.4l0.8-1.1
				c-1.3-1.4-2.6-2.8-3.8-4.3c-0.8-1.2-1.5-2.4-2.1-3.7c2.7-0.5,4.2-0.8,6.1,0.9c2.2,1.8,5.4,2.5,8.2,3.6l0.6-1
				c-1.1-1.4-1.9-3.2-3.4-4c-2.1-1.3-1.4-2.8-1.2-4.5c1.4,0.2,3,0.1,4.1,0.8c2.1,1.4,2.8,1.3,3.9-1.1c0.3-0.7,1.3-1.5,1.9-1.4
				c5.7,0.7,11.6,1,17.1,2.5c4.9,1.3,10,1.7,15,1.3c1-0.2,2-0.5,3-0.9c1.8-0.6,3.7-1,5.7-1.3c9.2-0.4,18.4-0.5,27.6-0.8
				c1,0,2-0.5,2.8-1.2c-0.7-0.2-1.5-0.4-2.3-0.4c-4.2-0.3-8.5-0.4-12.7-0.7c-2-0.3-3.9-0.7-5.9-1.3c-1.5-0.5-3.1-0.9-4.7-1.1
				c-2.6-0.1-3.4-1.4-2.7-3.7c1.6-5,3-10.1,5-14.9c1.9-4.9,4.2-9.7,6.8-14.2c2.4-4.2,5.6-8,8.4-12c2-2.8,4-5.7,6-8.5
				c0.2-0.2,0.3-0.5,0.5-0.6c2.6-2.4,5.3-4.7,7.9-7.1c2.4-2.3,4.4-5,7-7.1c3.5-2.8,7.4-5.2,11.2-7.6s7.8-5,11.8-7.3
				c1.7-1,3.7-1.5,5.4-2.4c3.9-1.9,7.7-4,11.6-5.7c5.5-2.4,11-4.8,16.5-6.8c2.7-0.8,5.6-1.4,8.5-1.5c7.4-0.8,14.8-1.9,22.2-1.9
				c6.8,0,13.5,1.3,20.3,2c1,0.1,1.9,0.2,2.8,0.5c4.2,1.3,8.4,2.6,12.6,4c0.1,0,0.2,0.1,0.2,0.1c4.5,1.9,9.1,3.7,13.6,5.7
				c1.6,0.8,3.1,1.7,4.5,2.8c2.5,1.9,4.4,1.3,5.7-1.6c0.8-1.6,1.8-3.1,2.8-4.5c3.5-5.1,4.9-11,5.6-17c0.3-2.8-0.4-5.8-0.7-8.7
				c-0.7-5.1-2.6-10-5.6-14.3c-2.6-3.8-5.8-7.8-9.7-10s-9-3-13.6-2.8c-9.6,0.3-19.1,1.3-28.6,2.4c-4.3,0.5-8.5,2.3-12.8,3
				c-4.3,0.6-8.6,0.9-12.9,1c-3.9,0.2-5.9-2.9-8-5.3c-0.6-0.8,0.6-3.2,1-5.1c-1.9-1.3-2.1-3.4-0.3-5.9c3.4-4.7,8.3-7.2,13.2-9.9
				c5.5-3,11.6-4.1,17.6-5.8c4.8-1.2,9.7-1.9,14.6-2c0.8-0.2,1.6-0.5,2.3-0.9c-2.6-1.5-4.8-2.8-7.1-3.9c-2.9-1.5-5.7-2.9-8.6-4.3
				c-1.9-0.9-4-1.3-5.8-2.4c-5.3-3.1-10.7-6.1-15.8-9.5c-3.1-2.1-5.7-5.1-8.7-7.5s-4.4-5.8-6.4-8.9c-0.4-0.6-0.4-1.3-0.2-2
				c1.9-3.8,4.3-7.3,8.1-9.5c0.3-0.1,0.5-0.4,0.8-0.4c6.2-0.3,12.3-1.2,18.4,1.4c4.2,1.8,8.8,2.5,13.2,3.5c4.4,0.9,8.8,1.6,13.2,2
				c2.9,0.1,5.9-0.1,8.8-0.6c2.2-0.3,4.3-1,6.4-1.4c3.5-0.5,6.7-2.1,9.2-4.5c3.9-3.5,8-6.7,12.4-9.6c2.4-1.6,5.5-2.2,8.2-3.4
				c10-4.5,20.4-2.8,30.8-2.1c2.7,0.2,5.3,1.8,7.8,3c4.4,2.2,9.1,4,12.8,7.1c2.4,2,6,3.5,6.9,7.1c0.1,0.5,0.7,0.9,1,1.4
				c2,2.8,4,5.5,5.9,8.3c4.2,6.1,5.1,13.4,6.6,20.4c0.9,4.1,0.3,8.4,0.9,12.6c1.3,9.4,3,18.7,4.3,28.1c0.5,3.6,0.5,7.3,0.1,10.9
				c-1.3,10-2.9,19.9-4.7,29.8c-0.6,3.1-2.1,6.1-3.2,9.1c-0.2,0.5-0.5,1-0.7,1.6c-1,2.7-2.1,5.3-2.9,8c-1.1,3.2-2,6.6-2.6,9.9
				c-1,7.2-2.2,14.4-2.3,21.6c-0.1,5.4,1,10.9,2,16.2c0.7,4.6,1.9,9.1,3.4,13.5c1.8,4.5,3.9,8.9,6.3,13.2c1.9,3.7,4,7.4,6,11.1
				c0.1,0.4,0.3,0.7,0.5,1c1.8,1.9,3.6,3.7,5.7,5.9c0.2-0.9,0.8-2,0.6-2.5c-1.1-2.2-2.7-4.2-3.8-6.4c-1.2-2.4-2.2-4.9-3.2-7.3
				c-1.1-2.7-2.1-5.5-3.1-8.2c-0.5-0.9-0.8-1.9-1.1-2.9c-1.1-5.8-2.3-11.6-3.2-17.5c-0.2-1,0.4-2.1,0.6-3.2c1,0.1,1.9,0.3,2.8,0.7
				c2.7,1.5,5.7,2.9,8,4.9c4,3.7,7.8,7.7,11.5,11.7c2,2.1,3.9,4.3,5.6,6.6c2.7,3.8,6,7.4,7.7,11.7c2.7,6.7,5.3,13.4,6.7,20.6
				c2.1,10.2,2.3,20.6,0.6,30.8c-1,6.3-2.8,12.4-5.3,18.3c-1.9,4.3-4.2,8.3-6.5,12.3s-5.9,7.5-8.9,11.1c-2,2.4-4.1,4.7-6.1,7.1
				c-0.4,0.3-0.7,0.6-1.2,0.8c-2.5,2-5.2,3.8-8,5.5c-4.3,2.3-7.8,5.8-12.9,6.6c-2.5,0.4-4.7,2.1-7.1,3.1c-5.4,2.3-11,4.2-16.2,6.8
				c-3.5,1.7-6.5,4.4-9.8,6.6c-1.1,0.7-2.3,1.2-3.4,2c-2.9,1.8-5.8,3.8-8.5,6c-2.3,2.2-4.6,4.5-6.6,6.9c-0.3,0.3-0.6,0.7-1,1
				c-2.5,2.5-5.3,4.7-7.5,7.4s-4.1,5.6-6.1,8.4c-1.4,2-3,4-4.3,6c-1.2,2.1-2.3,4.2-3.3,6.4c-2,4.5-4,8.9-6,13.4
				c-0.3,0.8-0.6,1.6-0.8,2.5c-1.7,5.5-3.8,10.8-4.8,16.4c-1,4.9-1.7,10,1.3,14.8c1.3,2.4,2.4,4.9,3.3,7.4c0.1,0.3,0.2,0.5,0.4,0.8
				c2.6,2.4,5.4,4.5,7.8,7.1c2.7,2.9,6.6,3.8,9.6,5.9c3.2,2.3,6.9,2.7,9.8,4.5c3.4,2.1,7.1,3.5,11,4.1c3.6,0.5,7,2.1,9.6,4.7
				c-2.7,0.2-5.1,0.4-7.5,0.5c-3.7,0.2-7.4,0-10.8,2.3c-1.5,1.1-3.8,1.2-5.8,1.5c-3.1,0.5-5,2.8-7.3,4.4c-0.6,0.4-1.5,1-2,0.9
				c-3.5-0.8-6.9-1.9-10.4-2.8c-2.1-0.5-4.3-0.9-6.4-1.1c-7.4-0.5-14.8-0.8-22.1-1.4c-1.1-0.1-2.2-1.1-3.4-1.6
				c0.5-0.9,1.1-1.8,1.5-2.8c0.4-0.7,0.7-1.5,0.9-2.3c0.1-3.9,0.6-7.9,0-11.8c-0.3-1.8-2.5-3.5-4.1-4.9c-1.5-1.1-3.2-2.1-4.9-3
				L418,460.3z"/>
			<g class="st2">
				<path class="st1" d="M12.6,53.6h-10V28.1h10c4,0,7.3,1.2,9.8,3.5c2.5,2.3,3.8,5.4,3.8,9.2s-1.2,6.9-3.7,9.2
					C19.9,52.5,16.6,53.6,12.6,53.6z M12.6,48.9c2.4,0,4.4-0.8,5.8-2.3c1.4-1.5,2.2-3.4,2.2-5.7c0-2.3-0.7-4.3-2.1-5.7
					c-1.4-1.5-3.4-2.2-5.9-2.2H8v15.9H12.6z"/>
				<path class="st1" d="M53.7,53.6h-6.2L46,49.3H35.1l-1.6,4.3h-6.2l9.9-25.5h6.8L53.7,53.6z M44.5,44.5l-4-11l-4,11H44.5z"/>
				<path class="st1" d="M76.7,53.6h-6.2l-5-9.1h-4v9.1h-5.4V28.1H68c2.6,0,4.7,0.8,6.2,2.3s2.3,3.5,2.3,5.9c0,2.1-0.5,3.8-1.6,5.1
					c-1.1,1.3-2.4,2.1-4,2.5L76.7,53.6z M67.2,39.8c1.1,0,2-0.3,2.8-0.9c0.7-0.6,1.1-1.5,1.1-2.5c0-1-0.4-1.9-1.1-2.5
					c-0.7-0.6-1.6-0.9-2.8-0.9h-5.7v6.9H67.2z"/>
				<path class="st1" d="M102.5,53.6h-6.7l-7.7-10.2l-2,2.4v7.8h-5.4V28.1h5.4v11.4l9-11.4h6.7l-10.1,12L102.5,53.6z"/>
				<path class="st1" d="M125.6,53.6h-6.2l-5-9.1h-4v9.1H105V28.1h11.9c2.6,0,4.7,0.8,6.2,2.3s2.3,3.5,2.3,5.9
					c0,2.1-0.5,3.8-1.6,5.1c-1.1,1.3-2.4,2.1-4,2.5L125.6,53.6z M116.1,39.8c1.1,0,2-0.3,2.8-0.9c0.7-0.6,1.1-1.5,1.1-2.5
					c0-1-0.4-1.9-1.1-2.5c-0.7-0.6-1.6-0.9-2.8-0.9h-5.7v6.9H116.1z"/>
				<path class="st1" d="M141.6,54.1c-3.8,0-7-1.2-9.5-3.7c-2.5-2.5-3.8-5.6-3.8-9.5s1.3-7,3.8-9.5c2.5-2.5,5.7-3.7,9.5-3.7
					c3.9,0,7.1,1.2,9.6,3.7c2.5,2.5,3.8,5.6,3.8,9.5c0,3.8-1.3,7-3.8,9.5C148.7,52.9,145.5,54.1,141.6,54.1z M136,46.9
					c1.4,1.6,3.3,2.4,5.6,2.4s4.2-0.8,5.6-2.4c1.4-1.6,2.1-3.6,2.1-6c0-2.4-0.7-4.4-2.1-6c-1.4-1.6-3.3-2.4-5.6-2.4
					s-4.2,0.8-5.6,2.4s-2.1,3.6-2.1,6C133.9,43.3,134.6,45.3,136,46.9z"/>
				<path class="st1" d="M170.8,54.1c-3.8,0-7-1.2-9.5-3.7c-2.5-2.5-3.8-5.6-3.8-9.5s1.3-7,3.8-9.5c2.5-2.5,5.7-3.7,9.5-3.7
					c3.9,0,7.1,1.2,9.6,3.7c2.5,2.5,3.8,5.6,3.8,9.5c0,3.8-1.3,7-3.8,9.5C177.9,52.9,174.7,54.1,170.8,54.1z M165.2,46.9
					c1.4,1.6,3.3,2.4,5.6,2.4s4.2-0.8,5.6-2.4c1.4-1.6,2.1-3.6,2.1-6c0-2.4-0.7-4.4-2.1-6c-1.4-1.6-3.3-2.4-5.6-2.4
					s-4.2,0.8-5.6,2.4s-2.1,3.6-2.1,6C163.1,43.3,163.8,45.3,165.2,46.9z"/>
				<path class="st1" d="M215.6,53.6h-5.5V35.8l-7.2,17.8h-2.4l-7.2-17.8v17.8H188V28.1h7.6l6.2,15.4l6.2-15.4h7.6V53.6z"/>
				<path class="st1" d="M240.5,53.6h-10V28.1h10c4,0,7.3,1.2,9.8,3.5c2.5,2.3,3.8,5.4,3.8,9.2s-1.2,6.9-3.7,9.2
					C247.7,52.5,244.5,53.6,240.5,53.6z M240.5,48.9c2.4,0,4.4-0.8,5.8-2.3c1.4-1.5,2.2-3.4,2.2-5.7c0-2.3-0.7-4.3-2.1-5.7
					c-1.4-1.5-3.4-2.2-5.9-2.2h-4.6v15.9H240.5z"/>
				<path class="st1" d="M277.9,51.2c-1.9,1.9-4.8,2.9-8.6,2.9c-3.8,0-6.6-1-8.6-2.9s-2.9-4.5-2.9-7.7V28.1h5.5v15.1
					c0,1.8,0.5,3.3,1.6,4.4c1,1.1,2.5,1.6,4.4,1.6c1.9,0,3.4-0.5,4.4-1.6c1-1.1,1.5-2.5,1.5-4.4V28.1h5.5v15.3
					C280.8,46.7,279.9,49.3,277.9,51.2z"/>
				<path class="st1" d="M298.2,54.1c-3.9,0-7.1-1.2-9.7-3.7c-2.6-2.5-3.9-5.6-3.9-9.5s1.3-7,3.9-9.5c2.6-2.5,5.8-3.7,9.7-3.7
					c4.8,0,8.3,2.1,10.7,6.2l-4.7,2.3c-0.6-1.1-1.4-2-2.5-2.7c-1.1-0.7-2.3-1-3.5-1c-2.3,0-4.2,0.8-5.7,2.4c-1.5,1.6-2.3,3.6-2.3,6
					c0,2.4,0.8,4.4,2.3,6c1.5,1.6,3.4,2.4,5.7,2.4c1.3,0,2.5-0.3,3.5-1c1.1-0.7,1.9-1.6,2.5-2.7l4.7,2.3
					C306.4,52,302.9,54.1,298.2,54.1z"/>
				<path class="st1" d="M333.9,53.6h-6.7l-7.7-10.2l-2,2.4v7.8h-5.4V28.1h5.4v11.4l9-11.4h6.7l-10.1,12L333.9,53.6z"/>
			</g>
			<g class="st2">
				<path class="st1" d="M235.5,89.2h-5.5V68.5h-7.4v-4.8h20.3v4.8h-7.4V89.2z"/>
				<path class="st1" d="M251.8,89.2h-5.4V63.7h5.4V89.2z"/>
				<path class="st1" d="M284.5,89.2H279V71.3l-7.2,17.8h-2.4l-7.2-17.8v17.8h-5.4V63.7h7.6l6.2,15.4l6.2-15.4h7.6V89.2z"/>
				<path class="st1" d="M307.6,89.2h-18V63.7h18v4.8H295v5.4h12.3v4.8H295v5.8h12.6V89.2z"/>
				<path class="st1" d="M332.4,89.2h-6.2l-5-9.1h-4v9.1h-5.4V63.7h11.9c2.6,0,4.7,0.8,6.2,2.3s2.3,3.5,2.3,5.9
					c0,2.1-0.5,3.8-1.6,5.1c-1.1,1.3-2.4,2.1-4,2.5L332.4,89.2z M322.9,75.3c1.1,0,2-0.3,2.8-0.9c0.7-0.6,1.1-1.5,1.1-2.5
					c0-1-0.4-1.9-1.1-2.5c-0.7-0.6-1.6-0.9-2.8-0.9h-5.7v6.9H322.9z"/>
			</g>
			<line class="st3" x1="324.6" y1="8.4" x2="328.8" y2="10.5"/>
			<line class="st3" x1="326.7" y1="100.7" x2="330.9" y2="102.8"/>
		</g>
	</g>
</g>
</svg>
