<?xml version="1.0" encoding="utf-8"?>
<!-- Generator: Adobe Illustrator 21.0.2, SVG Export Plug-In . SVG Version: 6.00 Build 0)  -->
<svg version="1.1" id="Слой_1" xmlns="http://www.w3.org/2000/svg" xmlns:xlink="http://www.w3.org/1999/xlink" x="0px" y="0px"
	 viewBox="0 0 50 50" style="enable-background:new 0 0 50 50;" xml:space="preserve">
<g>
	<path d="M49.9,22.3c-0.3-2.8-1-5.4-2.2-7.9C45,8.8,40.8,4.7,35.1,2.1c-2.2-1-4.4-1.7-6.8-1.9c-4.8-0.6-9.5,0-13.9,2.2
		C9.8,4.5,6.2,7.8,3.6,12.1c-1.7,2.9-2.9,6-3.4,9.4c-0.6,4.8,0,9.5,2.1,13.9c2.5,5.5,6.6,9.5,11.9,12.1c2.6,1.3,5.4,2.1,8.3,2.3
		c4.2,0.4,8.3-0.2,12.2-1.9c5.9-2.6,10.2-6.8,13-12.6c1.1-2.3,1.8-4.8,2.1-7.4c0.1-0.6,0.1-1.1,0.2-1.7c0-0.1,0-0.2,0-0.2
		c0-0.7,0-1.4,0-2.1C50,23.4,49.9,22.9,49.9,22.3z M25,48.1C12.3,48.1,1.9,37.7,1.9,25S12.3,1.9,25,1.9S48.1,12.3,48.1,25
		S37.7,48.1,25,48.1z"/>
	<g>
		<path d="M30.7,30.2L30.7,30.2c-0.4,0.4-1.1,0.4-1.5,0l-9-9c-0.4-0.4-0.4-1,0-1.4l0,0c0.4-0.4,1-0.4,1.4,0l9,9
			C31.1,29.2,31.1,29.8,30.7,30.2z"/>
		<path d="M20.3,30.2L20.3,30.2c-0.4-0.4-0.4-1.1,0-1.5l9-9c0.4-0.4,1-0.4,1.4,0l0,0c0.4,0.4,0.4,1,0,1.4l-9,9
			C21.3,30.6,20.7,30.6,20.3,30.2z"/>
	</g>
</g>
</svg>
