<?xml version="1.0" encoding="utf-8"?>
<!-- Generator: Adobe Illustrator 21.0.2, SVG Export Plug-In . SVG Version: 6.00 Build 0)  -->
<svg version="1.1" id="Слой_1" xmlns="http://www.w3.org/2000/svg" xmlns:xlink="http://www.w3.org/1999/xlink" x="0px" y="0px"
	 viewBox="0 0 50 50" style="enable-background:new 0 0 50 50;" xml:space="preserve">
<g>
	<g>
		<g>
			<path d="M48.5,0H1.5C0.7,0,0,0.7,0,1.5v47.1C0,49.3,0.6,50,1.5,50h47.1c0.8,0,1.5-0.7,1.5-1.5V1.5C50,0.7,49.4,0,48.5,0z
				 M2.9,2.9H45L2.9,45V2.9z M47.1,47.1H5L47.1,5V47.1z"/>
		</g>
	</g>
	<g>
		<g>
			<path d="M19.1,14.3h-1.9c0,0,0,0,0,0v-1.9c0-0.8-0.6-1.5-1.4-1.5c-0.8,0-1.5,0.6-1.5,1.5v2c0,0,0,0,0,0h-1.9
				c-0.8,0-1.5,0.6-1.5,1.4c0,0.8,0.6,1.5,1.5,1.5h2c0,0,0,0,0,0v1.9c0,0.8,0.6,1.5,1.4,1.5c0.8,0,1.5-0.6,1.5-1.5v-2c0,0,0,0,0,0h2
				c0.8,0,1.5-0.7,1.5-1.5C20.6,14.9,19.9,14.3,19.1,14.3z"/>
		</g>
	</g>
	<g>
		<g>
			<path d="M37.7,32.8h-6.8c-0.8,0-1.5,0.7-1.5,1.5s0.7,1.5,1.5,1.5h6.8c0.8,0,1.5-0.7,1.5-1.5S38.5,32.8,37.7,32.8z"/>
		</g>
	</g>
</g>
</svg>
