<?xml version="1.0" encoding="utf-8"?>
<!-- Generator: Adobe Illustrator 21.0.2, SVG Export Plug-In . SVG Version: 6.00 Build 0)  -->
<svg version="1.1" id="Слой_1" xmlns="http://www.w3.org/2000/svg" xmlns:xlink="http://www.w3.org/1999/xlink" x="0px" y="0px"
	 viewBox="0 0 50 50" style="enable-background:new 0 0 50 50;" xml:space="preserve">
<g>
	<g>
		<g>
			<path d="M45.5,10.6H27.3c0-2.3-2-4.1-4.5-4.1h-2.3V3.4c0-0.6-0.5-1-1.1-1H8c-0.6,0-1.1,0.5-1.1,1v3.1H4.5C2,6.5,0,8.4,0,10.6
				v33.1c0,2.3,2,4.1,4.5,4.1h18.2c2.5,0,4.5-1.9,4.5-4.1h9.1c2.5,0,4.5-1.9,4.5-4.1v-8.3c0-2.3,2-4.1,4.5-4.1s4.5-1.9,4.5-4.1v-8.3
				C50,12.5,48,10.6,45.5,10.6z M9.1,4.4h9.1v2.1H9.1V4.4z M25,43.8c0,1.1-1,2.1-2.3,2.1H4.5c-1.3,0-2.3-0.9-2.3-2.1V10.6
				c0-1.1,1-2.1,2.3-2.1h18.2c1.3,0,2.3,0.9,2.3,2.1L25,43.8L25,43.8z M46.6,16.8h1.1v6.2c0,1.1-1,2.1-2.3,2.1
				c-3.8,0-6.8,2.8-6.8,6.2v6.2h-3c-0.6,0-1.1,0.5-1.1,1s0.5,1,1.1,1h3c0,1.1-1,2.1-2.3,2.1h-9.1v-2.1h1.1c0.6,0,1.1-0.5,1.1-1
				s-0.5-1-1.1-1h-1.1V16.8h1.1c0.6,0,1.1-0.5,1.1-1c0-0.6-0.5-1-1.1-1h-1.1v-2.1h18.2c1.3,0,2.3,0.9,2.3,2.1h-1.1
				c-0.6,0-1.1,0.5-1.1,1C45.5,16.4,46,16.8,46.6,16.8z"/>
			<path d="M39.3,14.8h-3.6c-0.6,0-1.1,0.5-1.1,1c0,0.6,0.5,1,1.1,1h3.6c0.6,0,1.1-0.5,1.1-1C40.5,15.2,39.9,14.8,39.3,14.8z"/>
		</g>
	</g>
</g>
</svg>
