<?xml version="1.0" encoding="utf-8"?>
<!-- Generator: Adobe Illustrator 21.0.2, SVG Export Plug-In . SVG Version: 6.00 Build 0)  -->
<svg version="1.1" id="Слой_1" xmlns="http://www.w3.org/2000/svg" xmlns:xlink="http://www.w3.org/1999/xlink" x="0px" y="0px"
	 viewBox="0 0 50 50" style="enable-background:new 0 0 50 50;" xml:space="preserve">
<g>
	<path d="M49.7,22.4c-0.3-2.7-1-5.4-2.2-7.9C44.8,8.9,40.6,4.8,35,2.3c-2.2-1-4.4-1.6-6.7-1.9c-4.8-0.6-9.4,0-13.9,2.2
		C9.8,4.7,6.2,7.9,3.6,12.2c-1.7,2.9-2.9,6-3.3,9.4c-0.6,4.8,0,9.4,2,13.8c2.5,5.4,6.5,9.4,11.9,12.1c2.6,1.3,5.4,2.1,8.3,2.3
		c4.2,0.4,8.2-0.2,12.1-1.9c5.9-2.5,10.2-6.7,12.9-12.5c1.1-2.3,1.8-4.8,2.1-7.4c0.1-0.6,0.1-1.1,0.2-1.7c0-0.1,0-0.2,0-0.2
		c0-0.7,0-1.4,0-2.1C49.8,23.4,49.7,22.9,49.7,22.4z M24.9,48C12.3,48,2,37.7,2,25S12.3,2.1,24.9,2.1S47.9,12.4,47.9,25
		S37.6,48,24.9,48z"/>
	<g>
		<path d="M20.8,32.4L20.8,32.4c-0.6,0-1-0.5-1-1V18.7c0-0.6,0.5-1,1-1h0c0.6,0,1,0.5,1,1v12.6C21.9,31.9,21.4,32.4,20.8,32.4z"/>
		<path d="M29.1,32.4L29.1,32.4c-0.6,0-1-0.5-1-1V18.7c0-0.6,0.5-1,1-1h0c0.6,0,1,0.5,1,1v12.6C30.1,31.9,29.6,32.4,29.1,32.4z"/>
	</g>
</g>
</svg>
