<svg xmlns="http://www.w3.org/2000/svg" viewBox="0 0 44.05 49.61"><title>Ресурс 1</title><g id="Слой_2" data-name="Слой 2"><g id="Слой_1-2" data-name="Слой 1"><path d="M8.64,37.74a.64.64,0,0,1,.41-.52l.31-.12A19.85,19.85,0,1,1,39.2,29.34a11.43,11.43,0,0,1,1.12.62,21.13,21.13,0,1,0-21.26,12.2A21,21,0,0,1,8.9,38.34.64.64,0,0,1,8.64,37.74Z"/><path d="M22.87,40.9l-.32,0h-.06l-.3,0H20.07l-.3,0h-.06a19.66,19.66,0,0,1-9.06-3c4.45-1.82,5.85-3.67,5.85-7.37a3.43,3.43,0,0,0-.74-2.28A7.25,7.25,0,0,1,14.52,25a1.74,1.74,0,0,0-1.11-1.41c-.4-.19-.81-.39-1-2.26,0-1,.44-1.29.43-1.29a.64.64,0,0,0,.36-.7s-.19-1.06-.37-2.29c-.54-3.29-.53-6.88,3.61-8.56s7.22-.49,7.57.1A1,1,0,0,0,24.6,9l.17,0a4.48,4.48,0,0,1,3.36,1.38c1.71,2,1.19,7.3.87,9a.68.68,0,0,0,.34.69s.46.28.46,1.26c-.14,1.92-.55,2.12-1,2.31a1.74,1.74,0,0,0-1.11,1.41,7.26,7.26,0,0,1-1.24,3.27,3.44,3.44,0,0,0-.73,2.28,11.44,11.44,0,0,0,.07,1.31A11.52,11.52,0,0,1,27,30.77c0-.06,0-.11,0-.17A2.21,2.21,0,0,1,27.55,29,8.44,8.44,0,0,0,29,25.28c.06-.33.11-.35.4-.49.78-.37,1.49-.91,1.68-3.41a2.87,2.87,0,0,0-.75-2.15c.23-1.54.91-7.2-1.22-9.68a5.73,5.73,0,0,0-4.16-1.84C23.85,6.55,20.37,5.59,16,7.36c-5,2-5,6.38-4.4,9.94.11.79.24,1.52.31,1.95a3,3,0,0,0-.75,2.19c.19,2.45.9,3,1.68,3.37.29.14.34.17.4.49A8.44,8.44,0,0,0,14.71,29a2.22,2.22,0,0,1,.51,1.55c0,3-.82,4.59-5.86,6.5l-.31.12a.64.64,0,0,0-.15,1.12,21,21,0,0,0,10.17,3.82h0l.77.06h.07l.37,0H22l.37,0h.07l.68-.05A11.42,11.42,0,0,1,22.87,40.9Z"/><path d="M34.24,38.95a.9.9,0,0,0,.89-1c0-.72,0-1.44,0-2.16s0-1.44,0-2.16a.92.92,0,0,0-.88-1,.93.93,0,0,0-.88,1q0,2.16,0,4.32A.91.91,0,0,0,34.24,38.95Z"/><path d="M37.94,35.24a.83.83,0,0,0-.92.44.86.86,0,0,0,.17,1,4.15,4.15,0,1,1-5.94.06.9.9,0,0,0,.08-1.34A.88.88,0,0,0,30,35.6,5.68,5.68,0,0,0,28.85,42a5.6,5.6,0,0,0,5.38,3.58c3.26.07,5.9-2.61,5.91-6.54a5.53,5.53,0,0,0-1.63-3.42A1.27,1.27,0,0,0,37.94,35.24Z"/><path d="M34.11,29.73A9.94,9.94,0,1,0,44,39.67,9.94,9.94,0,0,0,34.11,29.73ZM34.28,48a8.34,8.34,0,1,1,8.33-8.38A8.34,8.34,0,0,1,34.28,48Z"/></g></g></svg>