<?xml version="1.0" encoding="utf-8"?>
<!-- Generator: Adobe Illustrator 21.0.2, SVG Export Plug-In . SVG Version: 6.00 Build 0)  -->
<svg version="1.1" id="Слой_1" xmlns="http://www.w3.org/2000/svg" xmlns:xlink="http://www.w3.org/1999/xlink" x="0px" y="0px"
	 viewBox="0 0 50 50" style="enable-background:new 0 0 50 50;" xml:space="preserve">
<g>
	<path d="M49.8,22.3c-0.3-2.8-1-5.4-2.2-7.9C45,8.8,40.8,4.7,35.1,2.1c-2.2-1-4.4-1.7-6.8-1.9c-4.8-0.6-9.5,0-13.9,2.2
		C9.8,4.5,6.2,7.8,3.6,12.1c-1.7,2.9-2.9,6-3.4,9.4c-0.6,4.8,0,9.5,2.1,13.9c2.5,5.5,6.6,9.5,11.9,12.1c2.6,1.3,5.4,2.1,8.3,2.3
		c4.2,0.4,8.3-0.2,12.2-1.9c5.9-2.6,10.2-6.8,13-12.6c1.1-2.3,1.8-4.8,2.1-7.4c0.1-0.6,0.1-1.1,0.2-1.7c0-0.1,0-0.2,0-0.2
		c0-0.7,0-1.4,0-2.1C49.9,23.4,49.9,22.9,49.8,22.3z M25,48.1C12.3,48.1,1.9,37.7,1.9,25S12.3,1.9,25,1.9S48.1,12.3,48.1,25
		S37.7,48.1,25,48.1z"/>
	<path d="M35.9,24c-0.1-0.1-0.2-0.1-0.3-0.2c-4.4-2.6-8.9-5.2-13.3-7.9c-0.8-0.5-1.7-1-2.6-1.5c-0.9-0.5-1.8,0.1-1.8,1
		c0,0.5,0,0.9,0,1.3c0,2.7,0,5.4,0,8.1c0,2.7,0,5.5,0,8.2c0,0.5,0,1.1,0.1,1.6c0.1,0.8,0.9,1.1,1.6,0.8c0.4-0.2,0.8-0.4,1.3-0.7
		c4.2-2.4,8.4-4.9,12.5-7.3c0.9-0.5,1.7-1,2.6-1.6c0.3-0.2,0.5-0.4,0.6-0.7C36.6,24.7,36.4,24.4,35.9,24z M33,25.2
		c-0.1,0.2-0.2,0.4-0.4,0.5c-0.6,0.4-1.2,0.7-1.8,1.1c-2.9,1.7-5.8,3.4-8.6,5c-0.3,0.2-0.6,0.3-0.9,0.5c-0.5,0.2-1,0-1.1-0.5
		c-0.1-0.4-0.1-0.7-0.1-1.1c0-1.9,0-3.8,0-5.7c0-1.9,0-3.7,0-5.6c0-0.3,0-0.6,0-0.9c0-0.7,0.6-1.1,1.3-0.7c0.6,0.3,1.2,0.7,1.8,1
		c3.1,1.8,6.1,3.6,9.2,5.4c0.1,0,0.1,0.1,0.2,0.1C33,24.6,33.1,24.8,33,25.2z"/>
</g>
</svg>
