<?xml version="1.0" encoding="utf-8"?>
<!-- Generator: Adobe Illustrator 21.0.2, SVG Export Plug-In . SVG Version: 6.00 Build 0)  -->
<svg version="1.1" id="Слой_1" xmlns="http://www.w3.org/2000/svg" xmlns:xlink="http://www.w3.org/1999/xlink" x="0px" y="0px"
	 viewBox="0 0 50 50" style="enable-background:new 0 0 50 50;" xml:space="preserve">
<g>
	<path d="M24.1,33.5c6.1-6.4,11.9-12.4,17.6-18.3C38,8.1,27,4.6,18.3,7.5c-9.9,3.4-15.7,13.1-14,23.7c1.5,9.7,10.5,17.3,20.6,17.3
		c6.6,0,12-2.6,16.3-7.6c4.2-5,5.4-10.8,4.6-17.2c0-0.4,1-0.6,1.2-0.3c0.3,0.8,0.4,1.6,0.4,2.4c0.9,10.6-6,20.4-16.2,23.4
		c-8.7,2.5-18.1-0.5-23.8-7.4c-5.8-7.2-6.7-16.9-2.4-24.9c4.3-7.9,13-12.6,22-11.7c6.6,0.7,11.8,3.7,16,8.9c0.7,0.9,0.6,1.5-0.1,2.2
		c-5.8,6-11.6,12.1-17.4,18.2c-0.8,0.9-1.5,0.8-2.3,0c-1.7-1.7-3.4-3.4-5.1-5.1c-0.4-0.4-1.1-1.1-0.6-1.6c0.7-0.6,1.3,0.2,1.6,0.5
		C20.8,29.8,22.4,31.6,24.1,33.5z"/>
	<path d="M20.7,2.1c2.6-0.4,5.3-0.4,8,0c0.5-0.5,0.6-1.3,0.2-1.8c-2.6-0.4-5.5-0.5-8.1-0.1C20.3,0.7,20.1,1.5,20.7,2.1z"/>
</g>
</svg>
