<?xml version="1.0" encoding="utf-8"?>
<!-- Generator: Adobe Illustrator 21.0.2, SVG Export Plug-In . SVG Version: 6.00 Build 0)  -->
<svg version="1.1" id="Слой_1" xmlns="http://www.w3.org/2000/svg" xmlns:xlink="http://www.w3.org/1999/xlink" x="0px" y="0px"
	 viewBox="0 0 50 50" style="enable-background:new 0 0 50 50;" xml:space="preserve">
<g>
	<path d="M25,0.3C11.4,0.3,0.3,11.4,0.3,25S11.4,49.8,25,49.8S49.8,38.6,49.8,25S38.6,0.3,25,0.3z M25,48.1
		C12.3,48.1,1.9,37.7,1.9,25S12.3,1.9,25,1.9S48.1,12.3,48.1,25S37.7,48.1,25,48.1z"/>
	<path d="M14.3,11.8c-1.8,0-3.3,1.5-3.3,3.3s1.5,3.3,3.3,3.3c1.8,0,3.3-1.5,3.3-3.3C17.6,13.3,16.1,11.8,14.3,11.8z M14.3,16.8
		c-0.9,0-1.6-0.7-1.6-1.6c0-0.9,0.7-1.7,1.6-1.7c0.9,0,1.7,0.7,1.7,1.7C15.9,16,15.2,16.8,14.3,16.8z"/>
	<path d="M29,14.4h5.1c0.5,0,0.8-0.4,0.8-0.8s-0.4-0.8-0.8-0.8H29c-6.8,0-12.2,5.6-12.2,12.7S22.1,38.2,29,38.2h5.1
		c0.5,0,0.8-0.4,0.8-0.8s-0.4-0.8-0.8-0.8H29c-6,0-10.6-4.8-10.6-11.1S22.9,14.4,29,14.4z"/>
</g>
</svg>
