<?xml version="1.0" encoding="utf-8"?>
<!-- Generator: Adobe Illustrator 21.0.2, SVG Export Plug-In . SVG Version: 6.00 Build 0)  -->
<svg version="1.1" id="Слой_1" xmlns="http://www.w3.org/2000/svg" xmlns:xlink="http://www.w3.org/1999/xlink" x="0px" y="0px"
	 viewBox="0 0 50 50" style="enable-background:new 0 0 50 50;" xml:space="preserve">
<style type="text/css">
	.st0{fill:none;stroke:#000000;stroke-width:0;stroke-linecap:round;stroke-linejoin:round;}
</style>
<g>
	<path d="M38,45.2c0,0.3,0.2,0.5,0.5,0.5h0.3c0.3,0,0.5-0.2,0.5-0.5v-3.5H38V45.2z"/>
	<g>
		<path d="M25,43.1c-10.3,0-18.6-8.3-18.6-18.5S14.7,6,25,6s18.6,8.3,18.6,18.5c0,1.8-0.3,3.6-0.8,5.3c0.5,0.2,0.9,0.5,1.4,0.8
			c0.4-1.2,0.6-2.4,0.8-3.6c0.1-0.5,0.1-0.9,0.1-1.4c0-0.1,0-0.1,0-0.2c0-0.6,0-1.1,0-1.7c0-0.4-0.1-0.9-0.1-1.3
			c-0.2-2.2-0.8-4.3-1.8-6.3c-2.2-4.5-5.5-7.8-10.1-9.9c-1.7-0.8-3.6-1.3-5.5-1.6c-3.9-0.5-7.7,0-11.2,1.7c-3.7,1.7-6.6,4.3-8.7,7.8
			C6.3,16.5,5.3,19,5,21.7c-0.5,3.9,0,7.6,1.7,11.2c2,4.4,5.3,7.6,9.6,9.7c2.1,1,4.4,1.7,6.7,1.9c1.4,0.1,2.7,0.1,4,0
			c-0.2-0.5-0.4-1-0.5-1.5C26,43,25.5,43.1,25,43.1z"/>
		<path d="M38.5,32c-5,0-9.1,4-9.1,9c0,5,4.1,9,9.1,9s9.1-4,9.1-9C47.6,36,43.5,32,38.5,32z M38.5,48.9c-4.4,0-8-3.5-8-7.9
			c0-4.4,3.6-7.9,8-7.9s8,3.5,8,7.9C46.5,45.4,42.9,48.9,38.5,48.9z"/>
		<path d="M39.4,36.8c0-0.3-0.2-0.5-0.5-0.5h-0.3c-0.3,0-0.5,0.2-0.5,0.5v3.5h1.4V36.8z"/>
		<path d="M42.9,40.3L42.9,40.3h-3.5H38h-3.5h0c-0.3,0-0.5,0.2-0.5,0.5v0.3c0,0.3,0.2,0.5,0.5,0.5h0H38h1.4h3.5h0
			c0.3,0,0.5-0.2,0.5-0.5v-0.3C43.5,40.6,43.2,40.3,42.9,40.3z"/>
		<line class="st0" x1="38" y1="40.3" x2="34.5" y2="40.3"/>
		<line class="st0" x1="39.4" y1="40.3" x2="38" y2="40.3"/>
		<line class="st0" x1="39.4" y1="40.3" x2="42.9" y2="40.3"/>
		<path d="M21.3,2.1c2.3-0.4,4.6-0.4,6.9,0c0.4-0.5,0.5-1.1,0.2-1.5c-2.3-0.4-4.7-0.4-7.1-0.1C20.9,0.9,20.7,1.6,21.3,2.1z"/>
		<g>
			<path d="M26.2,28.1L26.2,28.1c-0.3,0.3-0.9,0.3-1.2,0l-7.2-7.2c-0.3-0.3-0.3-0.9,0-1.2v0c0.3-0.3,0.9-0.3,1.2,0l7.2,7.2
				C26.5,27.2,26.5,27.8,26.2,28.1z"/>
			<path d="M25,28.1L25,28.1c-0.3-0.3-0.3-0.9,0-1.2l7.2-7.2c0.3-0.3,0.9-0.3,1.2,0v0c0.3,0.3,0.3,0.9,0,1.2l-7.2,7.2
				C25.8,28.4,25.3,28.4,25,28.1z"/>
		</g>
	</g>
</g>
</svg>
