<?xml version="1.0" encoding="utf-8"?>
<!-- Generator: Adobe Illustrator 21.0.2, SVG Export Plug-In . SVG Version: 6.00 Build 0)  -->
<svg version="1.1" id="Слой_1" xmlns="http://www.w3.org/2000/svg" xmlns:xlink="http://www.w3.org/1999/xlink" x="0px" y="0px"
	 viewBox="0 0 50 50" style="enable-background:new 0 0 50 50;" xml:space="preserve">
<g>
	<path d="M48.1,1.5c-0.5-1-1.4-1.5-2.5-1.5l-43,0C1.9,0,1.3,0.5,1.3,1.2v41.4c0,4.1,3.3,7.4,7.4,7.4h26.6c4.1,0,7.4-3.3,7.4-7.4V14
		c0-1.6,0.5-3.1,1.4-4.4l3.7-5C48.5,3.6,48.5,2.5,48.1,1.5z M45.9,3.1l-3.7,5c-1.2,1.7-1.9,3.7-1.9,5.9v28.6c0,2.8-2.2,5-5,5H8.8
		c-2.8,0-5-2.2-5-5V2.4l41.8,0c0.2,0,0.3,0.1,0.4,0.2S46,2.9,45.9,3.1z"/>
	<path d="M38.6,21.9c-2.3-1.8-5.5-1.8-7.8,0c-1.4,1.1-3.4,1.1-4.8,0c-2.3-1.8-5.5-1.8-7.8,0c0,0,0,0,0,0c-1.4,1.1-3.4,1.1-4.8,0
		C11,20,7.8,20,5.5,21.9C5.2,22.1,5,22.5,5,22.8v19.3c0,2.2,1.8,3.9,3.9,3.9h26.1c2.2,0,3.9-1.8,3.9-3.9V22.8
		C39,22.5,38.9,22.1,38.6,21.9z M36.6,42.2c0,0.8-0.7,1.5-1.5,1.5H9c-0.8,0-1.5-0.7-1.5-1.5V23.5c1.4-0.8,3.1-0.7,4.3,0.3
		c2.3,1.8,5.5,1.8,7.8,0c0,0,0,0,0,0c1.4-1.1,3.4-1.1,4.8,0c2.3,1.8,5.5,1.8,7.8,0c1.3-1,3-1.1,4.3-0.3L36.6,42.2L36.6,42.2z"/>
</g>
</svg>
